REM DIRINDEX 1
REM DIRNAME cjc118
TITLE ""
FILE "32_dokkai_2_q30_34.mp3" MP3
  TRACK 01 AUDIO
    TITLE "0:"
    INDEX 01 00:00:00
  TRACK 02 AUDIO
    TITLE "1:cjc118_1590"
    INDEX 01 00:00:15
  TRACK 03 AUDIO
    TITLE "1:cjc118_1591"
    INDEX 01 00:05:73
  TRACK 04 AUDIO
    TITLE "1:cjc118_1592"
    INDEX 01 00:09:45
  TRACK 05 AUDIO
    TITLE "1:cjc118_1593"
    INDEX 01 00:19:03
  TRACK 06 AUDIO
    TITLE "1:cjc118_1594"
    INDEX 01 00:21:04
  TRACK 07 AUDIO
    TITLE "1:cjc118_1595"
    INDEX 01 00:32:58
  TRACK 08 AUDIO
    TITLE "1:cjc118_1596"
    INDEX 01 00:39:27
  TRACK 09 AUDIO
    TITLE "1:cjc118_1597"
    INDEX 01 00:50:09
  TRACK 10 AUDIO
    TITLE "1:cjc118_1598"
    INDEX 01 00:55:61
  TRACK 11 AUDIO
    TITLE "1:cjc118_1599"
    INDEX 01 01:00:72
  TRACK 12 AUDIO
    TITLE "1:cjc118_1600"
    INDEX 01 01:11:02
  TRACK 13 AUDIO
    TITLE "1:cjc118_1601"
    INDEX 01 01:15:62
  TRACK 14 AUDIO
    TITLE "1:cjc118_1602"
    INDEX 01 01:20:00
  TRACK 15 AUDIO
    TITLE "1:cjc118_1603"
    INDEX 01 01:27:30
  TRACK 16 AUDIO
    TITLE "1:cjc118_1604"
    INDEX 01 01:36:17
  TRACK 17 AUDIO
    TITLE "1:cjc118_1605"
    INDEX 01 01:40:19
  TRACK 18 AUDIO
    TITLE "1:cjc118_1606"
    INDEX 01 01:41:61
  TRACK 19 AUDIO
    TITLE "1:cjc118_1607"
    INDEX 01 01:43:37
  TRACK 20 AUDIO
    TITLE "1:cjc118_1608"
    INDEX 01 01:45:08
  TRACK 21 AUDIO
    TITLE "1:cjc118_1609"
    INDEX 01 01:46:74
  TRACK 22 AUDIO
    TITLE "1:cjc118_1610"
    INDEX 01 01:49:55
  TRACK 23 AUDIO
    TITLE "1:cjc118_1611"
    INDEX 01 01:51:64
  TRACK 24 AUDIO
    TITLE "1:cjc118_1612"
    INDEX 01 01:58:46
  TRACK 25 AUDIO
    TITLE "1:cjc118_1613"
    INDEX 01 02:04:45
  TRACK 26 AUDIO
    TITLE "1:cjc118_1614"
    INDEX 01 02:08:58
  TRACK 27 AUDIO
    TITLE "1:cjc118_1615"
    INDEX 01 02:12:74
  TRACK 28 AUDIO
    TITLE "1:cjc118_1616"
    INDEX 01 02:17:08
  TRACK 29 AUDIO
    TITLE "1:cjc118_1617"
    INDEX 01 02:27:52
  TRACK 30 AUDIO
    TITLE "1:cjc118_1618"
    INDEX 01 02:31:22
  TRACK 31 AUDIO
    TITLE "1:cjc118_1619"
    INDEX 01 02:42:59
  TRACK 32 AUDIO
    TITLE "1:cjc118_1620"
    INDEX 01 02:44:52
  TRACK 33 AUDIO
    TITLE "1:cjc118_1621"
    INDEX 01 02:51:50
  TRACK 34 AUDIO
    TITLE "1:cjc118_1622"
    INDEX 01 02:56:26
  TRACK 35 AUDIO
    TITLE "1:cjc118_1623"
    INDEX 01 03:08:15
  TRACK 36 AUDIO
    TITLE "1:cjc118_1624"
    INDEX 01 03:11:61
  TRACK 37 AUDIO
    TITLE "1:cjc118_1625"
    INDEX 01 03:16:68
  TRACK 38 AUDIO
    TITLE "1:cjc118_1626"
    INDEX 01 03:18:47
  TRACK 39 AUDIO
    TITLE "1:cjc118_1627"
    INDEX 01 03:19:70
  TRACK 40 AUDIO
    TITLE "1:cjc118_1628"
    INDEX 01 03:23:09
  TRACK 41 AUDIO
    TITLE "1:cjc118_1629"
    INDEX 01 03:24:12
  TRACK 42 AUDIO
    TITLE "1:cjc118_1630"
    INDEX 01 03:26:19
  TRACK 43 AUDIO
    TITLE "1:cjc118_1631"
    INDEX 01 03:27:17
  TRACK 44 AUDIO
    TITLE "1:cjc118_1632"
    INDEX 01 03:29:65
  TRACK 45 AUDIO
    TITLE "1:cjc118_1633"
    INDEX 01 03:30:68
  TRACK 46 AUDIO
    TITLE "1:cjc118_1634"
    INDEX 01 03:33:29
  TRACK 47 AUDIO
    TITLE "1:cjc118_1635"
    INDEX 01 03:34:30
  TRACK 48 AUDIO
    TITLE "1:cjc118_1636"
    INDEX 01 03:36:49
  TRACK 49 AUDIO
    TITLE "1:cjc118_1637"
    INDEX 01 03:38:22
  TRACK 50 AUDIO
    TITLE "1:cjc118_1638"
    INDEX 01 03:39:65
  TRACK 51 AUDIO
    TITLE "1:cjc118_1639"
    INDEX 01 03:45:34
  TRACK 52 AUDIO
    TITLE "1:cjc118_1640"
    INDEX 01 03:46:40
  TRACK 53 AUDIO
    TITLE "1:cjc118_1641"
    INDEX 01 03:48:33
  TRACK 54 AUDIO
    TITLE "1:cjc118_1642"
    INDEX 01 03:49:34
  TRACK 55 AUDIO
    TITLE "1:cjc118_1643"
    INDEX 01 03:51:47
  TRACK 56 AUDIO
    TITLE "1:cjc118_1644"
    INDEX 01 03:52:54
  TRACK 57 AUDIO
    TITLE "1:cjc118_1645"
    INDEX 01 03:55:09
  TRACK 58 AUDIO
    TITLE "1:cjc118_1646"
    INDEX 01 03:56:11
  TRACK 59 AUDIO
    TITLE "1:cjc118_1647"
    INDEX 01 03:57:69
  TRACK 60 AUDIO
    TITLE "1:cjc118_1648"
    INDEX 01 03:59:38
  TRACK 61 AUDIO
    TITLE "1:cjc118_1649"
    INDEX 01 04:00:73
  TRACK 62 AUDIO
    TITLE "1:cjc118_1650"
    INDEX 01 04:05:49
  TRACK 63 AUDIO
    TITLE "1:cjc118_1651"
    INDEX 01 04:06:52
  TRACK 64 AUDIO
    TITLE "1:cjc118_1652"
    INDEX 01 04:08:67
  TRACK 65 AUDIO
    TITLE "1:cjc118_1653"
    INDEX 01 04:09:70
  TRACK 66 AUDIO
    TITLE "1:cjc118_1654"
    INDEX 01 04:12:13
  TRACK 67 AUDIO
    TITLE "1:cjc118_1655"
    INDEX 01 04:13:23
  TRACK 68 AUDIO
    TITLE "1:cjc118_1656"
    INDEX 01 04:15:35
  TRACK 69 AUDIO
    TITLE "1:cjc118_1657"
    INDEX 01 04:16:41
  TRACK 70 AUDIO
    TITLE "1:cjc118_1658"
    INDEX 01 04:18:43
  TRACK 71 AUDIO
    TITLE "1:cjc118_1659"
    INDEX 01 04:20:15
  TRACK 72 AUDIO
    TITLE "1:cjc118_1660"
    INDEX 01 04:21:52
  TRACK 73 AUDIO
    TITLE "1:cjc118_1661"
    INDEX 01 04:26:31
  TRACK 74 AUDIO
    TITLE "1:cjc118_1662"
    INDEX 01 04:27:37
  TRACK 75 AUDIO
    TITLE "1:cjc118_1663"
    INDEX 01 04:29:67
  TRACK 76 AUDIO
    TITLE "1:cjc118_1664"
    INDEX 01 04:30:68
  TRACK 77 AUDIO
    TITLE "1:cjc118_1665"
    INDEX 01 04:33:35
  TRACK 78 AUDIO
    TITLE "1:cjc118_1666"
    INDEX 01 04:34:44
  TRACK 79 AUDIO
    TITLE "1:cjc118_1667"
    INDEX 01 04:37:08
  TRACK 80 AUDIO
    TITLE "1:cjc118_1668"
    INDEX 01 04:38:15
  TRACK 81 AUDIO
    TITLE "1:cjc118_1669"
    INDEX 01 04:40:33
  TRACK 82 AUDIO
    TITLE "1:cjc118_1670"
    INDEX 01 04:42:01
  TRACK 83 AUDIO
    TITLE "1:cjc118_1671"
    INDEX 01 04:43:39
  TRACK 84 AUDIO
    TITLE "1:cjc118_1672"
    INDEX 01 04:46:54
  TRACK 85 AUDIO
    TITLE "1:cjc118_1673"
    INDEX 01 04:47:59
  TRACK 86 AUDIO
    TITLE "1:cjc118_1674"
    INDEX 01 04:51:33
  TRACK 87 AUDIO
    TITLE "1:cjc118_1675"
    INDEX 01 04:52:35
  TRACK 88 AUDIO
    TITLE "1:cjc118_1676"
    INDEX 01 04:56:30
  TRACK 89 AUDIO
    TITLE "1:cjc118_1677"
    INDEX 01 04:57:40
  TRACK 90 AUDIO
    TITLE "1:cjc118_1678"
    INDEX 01 05:01:14
  TRACK 91 AUDIO
    TITLE "1:cjc118_1679"
    INDEX 01 05:02:15
  TRACK 92 AUDIO
    TITLE "0:"
    INDEX 01 05:06:39
